<svg xmlns="http://www.w3.org/2000/svg" xmlns:xlink="http://www.w3.org/1999/xlink" width="500" zoomAndPan="magnify" viewBox="0 0 375 374.999991" height="500" preserveAspectRatio="xMidYMid meet" version="1.0"><defs><g/><clipPath id="172f12ec23"><path d="M 37.5 163.117188 L 124.5 163.117188 L 124.5 211.867188 L 37.5 211.867188 Z M 37.5 163.117188 " clip-rule="nonzero"/></clipPath></defs><g fill="#000000" fill-opacity="1"><g transform="translate(122.850525, 203.822785)"><g><path d="M 0.25 0 L 4.578125 -35.140625 L 11.453125 -35.140625 L 8.296875 -12.96875 L 15.375 -35.140625 L 21.921875 -35.140625 L 18.6875 -12.96875 L 25.6875 -35.140625 L 32.640625 -35.140625 L 20.703125 0 L 12.265625 0 L 14.40625 -16.9375 L 8.828125 0 Z M 0.25 0 "/></g></g></g><g fill="#000000" fill-opacity="1"><g transform="translate(152.995799, 203.822785)"><g><path d="M -2.453125 0 L 5.65625 -35.140625 L 12.640625 -35.140625 L 9.734375 -22.578125 L 13.0625 -22.578125 L 15.953125 -35.140625 L 22.953125 -35.140625 L 14.859375 0 L 7.859375 0 L 11.546875 -15.953125 L 8.234375 -15.953125 L 4.546875 0 Z M -2.453125 0 "/></g></g></g><g fill="#000000" fill-opacity="1"><g transform="translate(174.428848, 203.822785)"><g><path d="M -2.453125 0 L 5.65625 -35.140625 L 19.71875 -35.140625 L 18.171875 -28.34375 L 11.25 -28.34375 L 9.65625 -21.515625 L 16.28125 -21.515625 L 14.765625 -14.890625 L 8.140625 -14.890625 L 6.265625 -6.828125 L 13.625 -6.828125 L 12.078125 0 Z M -2.453125 0 "/></g></g></g><g fill="#000000" fill-opacity="1"><g transform="translate(192.303382, 203.822785)"><g><path d="M -2.453125 0 L 5.65625 -35.140625 L 19.71875 -35.140625 L 18.171875 -28.34375 L 11.25 -28.34375 L 9.65625 -21.515625 L 16.28125 -21.515625 L 14.765625 -14.890625 L 8.140625 -14.890625 L 6.265625 -6.828125 L 13.625 -6.828125 L 12.078125 0 Z M -2.453125 0 "/></g></g></g><g fill="#000000" fill-opacity="1"><g transform="translate(210.177915, 203.822785)"><g><path d="M -2.453125 0 L 5.65625 -35.140625 L 12.6875 -35.140625 L 5.984375 -5.96875 L 13.21875 -5.96875 L 11.828125 0 Z M -2.453125 0 "/></g></g></g><g fill="#38b6ff" fill-opacity="0.4"><g transform="translate(226.423319, 203.756134)"><g><path d="M -2.453125 0 L 5.65625 -35.125 L 19.71875 -35.125 L 18.15625 -28.296875 L 11.171875 -28.296875 L 9.859375 -22.6875 L 16.484375 -22.6875 L 14.9375 -15.953125 L 8.3125 -15.953125 L 4.625 0 Z M -2.453125 0 "/></g></g></g><g fill="#38b6ff" fill-opacity="0.4"><g transform="translate(243.555134, 203.756134)"><g><path d="M -2.453125 0 L 5.65625 -35.125 L 19.71875 -35.125 L 18.15625 -28.34375 L 11.25 -28.34375 L 9.65625 -21.515625 L 16.28125 -21.515625 L 14.765625 -14.890625 L 8.140625 -14.890625 L 6.265625 -6.828125 L 13.625 -6.828125 L 12.0625 0 Z M -2.453125 0 "/></g></g></g><g fill="#38b6ff" fill-opacity="0.4"><g transform="translate(261.218476, 203.756134)"><g><path d="M 0.53125 0 L 7.078125 -28.375 L 2.90625 -28.375 L 4.453125 -35.125 L 19.828125 -35.125 L 18.28125 -28.375 L 14.109375 -28.375 L 7.5625 0 Z M 0.53125 0 "/></g></g></g><g fill="#38b6ff" fill-opacity="0.4"><g transform="translate(278.227634, 203.756134)"><g><path d="M 5.65625 0.328125 C 3.09375 0.328125 1.222656 -0.472656 0.046875 -2.078125 C -1.128906 -3.691406 -1.390625 -5.898438 -0.734375 -8.703125 L 2.984375 -24.90625 C 3.804688 -28.394531 5.113281 -31.023438 6.90625 -32.796875 C 8.707031 -34.566406 11.097656 -35.453125 14.078125 -35.453125 C 16.660156 -35.453125 18.578125 -34.742188 19.828125 -33.328125 C 21.085938 -31.910156 21.40625 -29.863281 20.78125 -27.1875 L 19.390625 -21.140625 L 12.390625 -21.140625 L 13.625 -26.328125 C 13.84375 -27.335938 13.875 -28.03125 13.71875 -28.40625 C 13.570312 -28.789062 13.195312 -28.984375 12.59375 -28.984375 C 11.96875 -28.984375 11.484375 -28.765625 11.140625 -28.328125 C 10.804688 -27.898438 10.539062 -27.265625 10.34375 -26.421875 L 6.265625 -8.796875 C 6.066406 -7.867188 6.050781 -7.191406 6.21875 -6.765625 C 6.382812 -6.347656 6.738281 -6.140625 7.28125 -6.140625 C 8.375 -6.140625 9.125 -7.023438 9.53125 -8.796875 L 11 -15.125 L 18.078125 -15.125 L 16.5625 -8.5 C 15.195312 -2.613281 11.5625 0.328125 5.65625 0.328125 Z M 5.65625 0.328125 "/></g></g></g><g fill="#38b6ff" fill-opacity="0.4"><g transform="translate(298.425965, 203.756134)"><g><path d="M -2.453125 0 L 5.65625 -35.125 L 12.640625 -35.125 L 9.734375 -22.578125 L 13.046875 -22.578125 L 15.953125 -35.125 L 22.953125 -35.125 L 14.84375 0 L 7.859375 0 L 11.53125 -15.953125 L 8.21875 -15.953125 L 4.546875 0 Z M -2.453125 0 "/></g></g></g><g fill="#38b6ff" fill-opacity="1"><g transform="translate(226.423319, 203.756134)"><g><path d="M -2.453125 0 L 5.65625 -35.125 L 19.71875 -35.125 L 18.15625 -28.296875 L 11.171875 -28.296875 L 9.859375 -22.6875 L 16.484375 -22.6875 L 14.9375 -15.953125 L 8.3125 -15.953125 L 4.625 0 Z M -2.453125 0 "/></g></g></g><g fill="#38b6ff" fill-opacity="1"><g transform="translate(243.555134, 203.756134)"><g><path d="M -2.453125 0 L 5.65625 -35.125 L 19.71875 -35.125 L 18.15625 -28.34375 L 11.25 -28.34375 L 9.65625 -21.515625 L 16.28125 -21.515625 L 14.765625 -14.890625 L 8.140625 -14.890625 L 6.265625 -6.828125 L 13.625 -6.828125 L 12.0625 0 Z M -2.453125 0 "/></g></g></g><g fill="#38b6ff" fill-opacity="1"><g transform="translate(261.218476, 203.756134)"><g><path d="M 0.53125 0 L 7.078125 -28.375 L 2.90625 -28.375 L 4.453125 -35.125 L 19.828125 -35.125 L 18.28125 -28.375 L 14.109375 -28.375 L 7.5625 0 Z M 0.53125 0 "/></g></g></g><g fill="#38b6ff" fill-opacity="1"><g transform="translate(278.227634, 203.756134)"><g><path d="M 5.65625 0.328125 C 3.09375 0.328125 1.222656 -0.472656 0.046875 -2.078125 C -1.128906 -3.691406 -1.390625 -5.898438 -0.734375 -8.703125 L 2.984375 -24.90625 C 3.804688 -28.394531 5.113281 -31.023438 6.90625 -32.796875 C 8.707031 -34.566406 11.097656 -35.453125 14.078125 -35.453125 C 16.660156 -35.453125 18.578125 -34.742188 19.828125 -33.328125 C 21.085938 -31.910156 21.40625 -29.863281 20.78125 -27.1875 L 19.390625 -21.140625 L 12.390625 -21.140625 L 13.625 -26.328125 C 13.84375 -27.335938 13.875 -28.03125 13.71875 -28.40625 C 13.570312 -28.789062 13.195312 -28.984375 12.59375 -28.984375 C 11.96875 -28.984375 11.484375 -28.765625 11.140625 -28.328125 C 10.804688 -27.898438 10.539062 -27.265625 10.34375 -26.421875 L 6.265625 -8.796875 C 6.066406 -7.867188 6.050781 -7.191406 6.21875 -6.765625 C 6.382812 -6.347656 6.738281 -6.140625 7.28125 -6.140625 C 8.375 -6.140625 9.125 -7.023438 9.53125 -8.796875 L 11 -15.125 L 18.078125 -15.125 L 16.5625 -8.5 C 15.195312 -2.613281 11.5625 0.328125 5.65625 0.328125 Z M 5.65625 0.328125 "/></g></g></g><g fill="#38b6ff" fill-opacity="1"><g transform="translate(298.425965, 203.756134)"><g><path d="M -2.453125 0 L 5.65625 -35.125 L 12.640625 -35.125 L 9.734375 -22.578125 L 13.046875 -22.578125 L 15.953125 -35.125 L 22.953125 -35.125 L 14.84375 0 L 7.859375 0 L 11.53125 -15.953125 L 8.21875 -15.953125 L 4.546875 0 Z M -2.453125 0 "/></g></g></g><g clip-path="url(#172f12ec23)"><path fill="#000000" d="M 68.085938 200.34375 C 68.296875 198.304688 69.347656 196.5 70.878906 195.300781 C 72.101562 196.363281 73.292969 198.605469 72.605469 199.578125 C 71.925781 200.542969 69.472656 200.664062 68.085938 200.34375 M 71.113281 207.070312 C 69.527344 205.925781 68.410156 204.15625 68.125 202.136719 C 69.648438 201.609375 72.199219 201.691406 72.699219 202.773438 C 73.191406 203.847656 72.078125 206.023438 71.113281 207.070312 Z M 78.429688 207.820312 C 77.503906 208.238281 76.4375 208.476562 75.414062 208.476562 C 74.390625 208.476562 73.523438 208.28125 72.671875 207.9375 C 72.976562 206.351562 74.316406 204.195312 75.503906 204.304688 C 76.683594 204.410156 78.007812 206.460938 78.429688 207.820312 Z M 82.746094 201.851562 C 82.535156 203.894531 81.484375 205.6875 79.949219 206.890625 C 78.734375 205.828125 77.539062 203.59375 78.222656 202.625 C 78.90625 201.660156 81.359375 201.535156 82.746094 201.851562 Z M 79.71875 195.125 C 81.308594 196.273438 82.417969 198.03125 82.707031 200.058594 C 81.179688 200.585938 78.632812 200.511719 78.132812 199.429688 C 77.640625 198.359375 78.753906 196.171875 79.71875 195.125 Z M 75.414062 193.730469 C 76.4375 193.730469 77.308594 193.917969 78.160156 194.257812 C 77.851562 195.847656 76.515625 198.011719 75.328125 197.902344 C 74.148438 197.796875 72.828125 195.730469 72.40625 194.375 C 73.324219 193.960938 74.390625 193.730469 75.414062 193.730469 Z M 75.414062 190.34375 C 81.335938 190.34375 86.167969 195.179688 86.167969 201.101562 C 86.167969 207.027344 81.335938 211.859375 75.414062 211.859375 C 69.492188 211.859375 64.660156 207.027344 64.660156 201.101562 C 64.660156 195.179688 69.492188 190.34375 75.414062 190.34375 Z M 115.546875 166.917969 C 114.699219 166.8125 114.378906 166.710938 113.230469 166.863281 C 104.488281 168.03125 89.113281 176.027344 88.195312 177.863281 C 86.828125 180.582031 106.171875 179.320312 107.769531 179.175781 C 113.429688 178.648438 117.222656 168.460938 115.546875 166.917969 Z M 119.027344 163.117188 L 124.445312 170.605469 L 114.078125 196.929688 L 89.757812 200.433594 L 89.757812 201.023438 L 112.746094 200.402344 L 110.523438 206.460938 L 86.265625 206.460938 C 87.070312 204.84375 87.519531 203.03125 87.523438 201.117188 L 87.523438 201.070312 C 87.515625 197.753906 86.15625 194.738281 83.976562 192.554688 L 83.976562 192.542969 C 81.789062 190.355469 78.761719 188.988281 75.425781 188.988281 L 75.382812 188.988281 C 72.066406 188.996094 69.054688 190.351562 66.871094 192.535156 C 64.679688 194.726562 63.3125 197.757812 63.308594 201.085938 L 63.308594 201.128906 C 63.308594 203.042969 63.769531 204.851562 64.570312 206.460938 L 39.097656 206.460938 C 38.480469 203.941406 40.625 201.90625 40.382812 200.800781 C 40.207031 200.003906 37.550781 193.683594 37.835938 193.3125 C 43.65625 185.789062 67.984375 177.765625 83.273438 175.929688 C 86.605469 173.8125 95.390625 169.097656 105.304688 165.664062 C 109.609375 164.171875 115.292969 163.167969 119.027344 163.117188 Z M 41.648438 197.148438 L 43.128906 200.476562 L 58.757812 200.476562 L 47.21875 199.050781 L 45.921875 196.9375 Z M 41.648438 197.148438 " fill-opacity="1" fill-rule="evenodd"/></g></svg>